<svg width="90" height="51" viewBox="0 0 90 51" fill="none" xmlns="http://www.w3.org/2000/svg">
<path d="M37.1104 0.304003C36.157 0.624296 35.3374 0.99516 31.34 2.93374C30.052 3.55746 28.2791 4.40036 27.4093 4.82172C24.5325 6.20407 22.5086 7.18176 20.3008 8.24381C19.1133 8.81693 17.5243 9.57554 16.7883 9.92951C16.0524 10.2835 14.5471 10.9916 13.4432 11.5309C12.3393 12.0704 10.767 12.829 9.93078 13.2167C9.1112 13.6213 7.30474 14.481 5.91652 15.1553C4.545 15.8127 2.93931 16.5881 2.37062 16.8579C0.447146 17.785 -0.355698 19.2516 0.146079 20.9373C0.447146 21.9993 1.30017 22.6568 3.99304 23.9379L6.41834 25.101L6.4685 30.2425L6.50191 35.384L6.11721 35.5357C5.53183 35.7717 4.69553 36.8169 4.56172 37.4911C4.51154 37.8283 4.545 38.4183 4.64535 38.806C4.81261 39.4129 4.77916 39.7669 4.41119 41.3683C3.69198 44.5038 3.59162 45.1275 3.82578 45.4141C3.99304 45.6163 4.6119 45.667 7.27133 45.667C11.1517 45.667 10.9845 45.7681 10.4995 43.6272C10.3322 42.8517 10.098 41.874 10.0144 41.4526C9.93078 41.0311 9.79696 40.4243 9.7133 40.1041C9.62965 39.7838 9.62965 39.3286 9.69656 39.0926C10.098 37.6598 9.67989 36.3449 8.59268 35.7043C8.27488 35.502 7.97383 35.1817 7.92367 34.9794C7.87343 34.794 7.85676 32.7205 7.87343 30.4111C7.79818 26.3485 7.85676 26.142 8.17456 26.1083C8.35854 26.0746 9.76347 26.7025 11.1852 27.4274L13.7777 28.7254L13.8613 36.7326C13.9617 45.886 13.9115 45.5658 15.467 47.0323C16.5375 48.0269 18.0428 48.7349 20.903 49.5609C23.4286 50.2858 26.6232 51.0781 26.7068 50.9938C26.7236 50.9602 26.4225 50.5724 26.0211 50.1341C25.3521 49.3755 25.2015 49.2912 23.7297 48.9204C22.8599 48.7013 21.9233 48.4484 21.6389 48.3641C21.3713 48.2798 20.719 48.0944 20.2172 47.9595C18.7119 47.5381 16.6044 46.3918 16.1026 45.7512C15.2329 44.588 15.2161 44.4364 15.1994 36.7663C15.1994 29.9222 15.2161 29.6525 15.5172 29.6525C15.8183 29.6525 17.4741 30.3942 20.6353 31.9451C23.3951 33.3105 23.1777 33.26 23.4788 32.6869C23.6126 32.4171 23.7297 32.1305 23.7297 32.0462C23.7297 31.962 23.2613 31.6922 22.6926 31.4225C21.7225 30.9842 19.0297 29.6862 15.3667 27.9331C14.5806 27.5453 13.0919 26.8373 12.055 26.3485C10.8841 25.7922 9.01921 24.9788 9.05263 24.844C9.30352 24.844 9.39551 25.0674 24.315 22.8927C28.0951 22.3365 33.0125 21.6285 35.237 21.3082C37.4784 20.971 39.452 20.6338 39.636 20.5327C40.0207 20.3304 40.0542 19.8247 39.7029 19.5381C39.4186 19.3022 39.2011 19.319 35.6887 19.8584C34.5011 20.0438 31.4068 20.499 28.8311 20.8699C26.2553 21.2576 22.8766 21.7465 21.3043 21.9824C14.3799 23.0107 7.95708 23.921 7.53896 23.921C7.30474 23.921 5.94997 23.3648 4.52827 22.7073C2.48771 21.7465 1.86885 21.3756 1.63468 20.971C0.915469 19.791 1.4507 18.7627 3.20692 17.9536C3.85923 17.6333 5.34784 16.9253 6.50191 16.3858C7.65603 15.8296 8.92722 15.2227 9.34534 15.0204C9.76347 14.835 11.7372 13.8741 13.761 12.8964C15.7681 11.9187 17.4239 11.1095 17.4574 11.1095C17.4741 11.1095 18.762 10.4858 20.3175 9.74409C23.1944 8.34495 25.4691 7.24917 28.162 5.96804C28.9983 5.56347 30.8716 4.67005 32.3435 3.94517C37.7794 1.41659 37.3488 1.307 39.222 1.307H39.8415C39.9719 1.30701 40.1021 1.31786 40.2306 1.33946C40.3525 1.35994 40.4727 1.39 40.5899 1.42939L40.7901 1.49665L42.9644 2.41116C44.1185 2.95059 46.2929 3.99578 47.7982 4.72058C49.3036 5.46233 50.5413 6.05232 50.5747 6.05232C50.5915 6.05232 52.3979 6.92894 54.5722 7.99091C56.7634 9.05296 58.5698 9.92951 58.5865 9.92951C58.6199 9.92951 60.142 10.6544 61.9651 11.5478C65.143 13.0987 67.0832 14.0259 69.6423 15.2396C74.1249 17.3636 76.4165 18.5267 76.7172 18.8639C76.9851 19.1504 77.0856 19.4707 77.0856 20.0438C77.0856 21.0384 76.7507 21.4093 75.1786 22.1511C73.7903 22.8085 73.9241 22.977 75.7473 22.8759C77.1191 22.8085 77.6542 22.4713 78.2228 21.3925C78.9083 20.0271 78.5741 18.5773 77.3029 17.5321C76.9516 17.2456 76.6338 17.0095 76.5668 17.0095C76.517 17.0095 75.0615 16.3184 73.3388 15.4924C71.616 14.6496 66.5313 12.2221 62.0655 10.0813C51.6787 5.10836 51.2103 4.8892 46.3096 2.51231C44.0516 1.41659 41.8104 0.405147 41.3086 0.253431C40.1211 -0.100571 38.2645 -0.0837082 37.1104 0.304003ZM7.72294 36.7663C8.25813 37.0529 8.49228 37.4237 8.50902 37.9801C8.50902 39.042 7.27133 39.632 6.3681 38.9915C6.08378 38.7892 6.00015 38.57 6.00015 37.9801C6.00015 37.3226 6.06705 37.1877 6.55207 36.9011C7.18767 36.5134 7.23783 36.4966 7.72294 36.7663ZM8.7934 42.2955C9.0108 43.172 9.14462 43.998 9.09445 44.0992C9.0108 44.3521 5.41474 44.4195 5.26421 44.1835C5.19731 44.0823 5.39802 43.1215 5.91652 40.9806C6.00015 40.6098 6.08378 40.5929 7.22116 40.6434L8.42544 40.694L8.7934 42.2955Z" fill="#171717"/>
<path d="M34.9067 32.9524C34.8398 33.0198 34.7896 34.9078 34.7896 37.1498C34.7896 41.027 34.8064 41.2461 35.1743 41.9541C35.7263 43.0667 36.4288 43.4713 37.8337 43.4713C39.2387 43.4713 39.9746 43.0667 40.5266 41.9541C40.8778 41.2293 40.8946 41.0101 40.8946 37.0655V32.9355L40.1921 32.8849L39.4728 32.8344V36.4755C39.4728 40.3695 39.3224 41.4653 38.7537 41.8699C38.3355 42.1564 37.5828 42.1902 37.1313 41.9541C36.4455 41.5833 36.3786 41.1619 36.2949 36.9812L36.2113 32.9355L35.6259 32.8849C35.2914 32.8512 34.9736 32.8849 34.9067 32.9524Z" fill="#171717"/>
<path d="M46.4141 33.0535C46.364 33.1714 45.9124 34.9415 45.4106 36.9812C44.8921 39.021 44.3234 41.2461 44.1394 41.9373C43.9722 42.6284 43.8216 43.2521 43.8216 43.3364C43.8216 43.4039 44.1561 43.4713 44.5743 43.4713C45.3103 43.4713 45.3103 43.4544 45.5109 42.7464C45.9124 41.1955 45.8455 41.263 47.2839 41.3135L48.5885 41.3641L48.8561 42.3756L49.1237 43.387L49.8095 43.4375C50.4451 43.4882 50.512 43.4544 50.512 43.1004C50.512 42.8813 50.2945 41.8361 50.0269 40.7741C49.7593 39.7121 49.2074 37.5375 48.8227 35.9698C48.4212 34.3852 48.0198 33.0535 47.9195 32.986C47.6352 32.7669 46.4978 32.8344 46.4141 33.0535ZM47.8024 37.6555C48.0198 38.7175 48.1369 39.6784 48.0867 39.7626C47.9362 40.0155 46.3807 39.9649 46.2803 39.7121C46.2469 39.611 46.2636 39.3244 46.3472 39.0884C46.4141 38.8523 46.5981 38.0601 46.7487 37.3184C47.2337 35.1269 47.3006 35.1606 47.8024 37.6555Z" fill="#171717"/>
<path d="M54.1498 33.1883C54.0495 33.3569 54.0244 34.1365 54.0244 34.9583C54.0244 35.7802 53.9909 38.0601 54.0077 39.9987V41.601C54.0077 42.6153 54.8239 43.4376 55.8308 43.4376C57.8713 43.3533 58.44 43.1341 59.1593 42.1733C59.493 41.8017 59.6777 41.3184 59.6777 40.8173V40.7741V40.0156V38.4478C59.7112 36.2733 59.6777 35.1776 59.5272 34.8066C58.992 33.4581 57.771 32.8513 55.513 32.8513C54.4091 32.8513 54.2836 32.9187 54.1498 33.1883ZM57.4031 34.5538C58.1724 34.9584 58.2895 35.481 58.2895 38.1781C58.2895 40.5213 58.256 40.791 57.9382 41.2293C57.4866 41.8362 56.3326 42.2407 55.7639 41.971L55.3624 41.7855V38.1781C55.3624 34.9078 55.3959 34.537 55.6635 34.3684C55.9646 34.1829 56.9013 34.2841 57.4031 34.5538Z" fill="#171717"/>
<path d="M63.4746 33.2221C63.4244 33.4413 63.4077 35.8013 63.4244 38.4984L63.4746 43.3871H66.0671H68.6596V42.7971V42.207L67.0038 42.1565C66.0838 42.1396 65.2308 42.0216 65.1137 41.9204C64.9465 41.7856 64.8963 41.3473 64.9298 40.2853L64.9799 38.8356L66.6191 38.785L68.2415 38.7345V38.077V37.4196L66.6191 37.369L64.9799 37.3184L64.9298 36.0036C64.8963 35.1607 64.9465 34.5876 65.0803 34.4358C65.2141 34.2673 65.7158 34.1998 66.9369 34.1998H68.5927L68.5425 33.5593L68.4924 32.9355L66.0336 32.8849C63.5917 32.8344 63.5583 32.8513 63.4746 33.2221Z" fill="#171717"/>
<path d="M84.8147 33.167C84.7649 33.3861 84.7477 35.7462 84.7649 38.4433L84.8147 43.3319H87.407H90V42.7419V42.152L88.344 42.1013C87.4241 42.0845 86.5712 41.9665 86.4536 41.8653C86.2869 41.7305 86.2362 41.2922 86.2697 40.2302L86.3204 38.7805L87.9592 38.7299L89.5817 38.6793V38.0219V37.3645L87.9592 37.3139L86.3204 37.2633L86.2697 35.9485C86.2362 35.1056 86.2869 34.5325 86.4201 34.3807C86.554 34.2122 87.0557 34.1448 88.277 34.1448H89.933L89.8823 33.5042L89.8325 32.8804L87.3735 32.8298C84.9316 32.7793 84.8981 32.7962 84.8147 33.167Z" fill="#171717"/>
<path d="M72.54 32.9692C72.4731 33.0198 72.423 35.4135 72.423 38.2792V43.4713H73.092C73.6774 43.4713 73.761 43.4207 73.7777 43.0836C73.7777 42.8813 73.7777 41.4653 73.7777 39.9313C73.761 38.3972 73.8279 37.0318 73.9116 36.897C74.0955 36.6441 74.1123 36.6778 74.798 38.5827C74.982 39.0884 75.1827 39.6615 75.2497 39.847C75.3332 40.0324 75.4671 40.3864 75.5841 40.6393C75.7347 41.0607 75.8518 41.1112 76.5037 41.1112H77.2569L77.5911 40.1335C78.5445 37.5038 78.8623 36.7283 78.9799 36.7283C79.0461 36.7283 79.1302 38.2287 79.1466 40.0493L79.1972 43.387H79.8663H80.5354V38.1612V32.9355H79.7822H79.0297L77.859 35.8349C77.1393 37.6386 76.6042 38.7344 76.471 38.7007C76.3534 38.6838 75.7681 37.4195 75.1493 35.8855C74.5472 34.3515 73.9617 33.0535 73.8614 32.986C73.6272 32.8175 72.6905 32.8175 72.54 32.9692Z" fill="#171717"/>
</svg>
