<svg width="90" height="57" viewBox="0 0 90 57" fill="none" xmlns="http://www.w3.org/2000/svg">
<path d="M37.1104 0.339768C36.157 0.697742 35.3374 1.11224 31.34 3.27889C30.052 3.97598 28.2791 4.91805 27.4093 5.38899C24.5325 6.93396 22.5086 8.02668 20.3008 9.21367C19.1133 9.85421 17.5243 10.7021 16.7883 11.0977C16.0524 11.4934 14.5471 12.2847 13.4432 12.8875C12.3393 13.4904 10.767 14.3383 9.93078 14.7716C9.1112 15.2238 7.30474 16.1846 5.91652 16.9383C4.545 17.673 2.93931 18.5396 2.37062 18.8411C0.447146 19.8774 -0.355698 21.5165 0.146079 23.4006C0.447146 24.5875 1.30017 25.3223 3.99304 26.7541L6.41834 28.0541L6.4685 33.8005L6.50191 39.5468L6.11721 39.7164C5.53183 39.9801 4.69553 41.1483 4.56172 41.9018C4.51154 42.2787 4.545 42.9381 4.64535 43.3714C4.81261 44.0497 4.77916 44.4454 4.41119 46.2352C3.69198 49.7395 3.59162 50.4366 3.82578 50.7569C3.99304 50.983 4.6119 51.0395 7.27133 51.0395C11.1517 51.0395 10.9845 51.1526 10.4995 48.7598C10.3322 47.8931 10.098 46.8004 10.0144 46.3294C9.93078 45.8583 9.79696 45.1801 9.7133 44.8222C9.62965 44.4642 9.62965 43.9555 9.69656 43.6918C10.098 42.0903 9.67989 40.6208 8.59268 39.9048C8.27488 39.6787 7.97383 39.3207 7.92367 39.0946C7.87343 38.8874 7.85676 36.57 7.87343 33.9889C7.79818 29.4483 7.85676 29.2175 8.17456 29.1799C8.35854 29.1421 9.76347 29.844 11.1852 30.6541L13.7777 32.1048L13.8613 41.0541C13.9617 51.2844 13.9115 50.9265 15.467 52.5656C16.5375 53.6771 18.0428 54.4684 20.903 55.3916C23.4286 56.2018 26.6232 57.0873 26.7068 56.9931C26.7236 56.9555 26.4225 56.5221 26.0211 56.0323C25.3521 55.1844 25.2015 55.0902 23.7297 54.6758C22.8599 54.4308 21.9233 54.1482 21.6389 54.054C21.3713 53.9598 20.719 53.7526 20.2172 53.6018C18.7119 53.1308 16.6044 51.8497 16.1026 51.1337C15.2329 49.8337 15.2161 49.6642 15.1994 41.0917C15.1994 33.4425 15.2161 33.1411 15.5172 33.1411C15.8183 33.1411 17.4741 33.97 20.6353 35.7034C23.3951 37.2294 23.1777 37.1729 23.4788 36.5324C23.6126 36.2309 23.7297 35.9106 23.7297 35.8164C23.7297 35.7222 23.2613 35.4207 22.6926 35.1193C21.7225 34.6294 19.0297 33.1787 15.3667 31.2194C14.5806 30.786 13.0919 29.9947 12.055 29.4483C10.8841 28.8266 9.01921 27.9175 9.05263 27.7668C9.30352 27.7668 9.39551 28.0165 24.315 25.586C28.0951 24.9643 33.0125 24.173 35.237 23.815C37.4784 23.4382 39.452 23.0613 39.636 22.9483C40.0207 22.7222 40.0542 22.157 39.7029 21.8367C39.4186 21.573 39.2011 21.5918 35.6887 22.1947C34.5011 22.4019 31.4068 22.9107 28.8311 23.3251C26.2553 23.7585 22.8766 24.3049 21.3043 24.5686C14.3799 25.7179 7.95708 26.7353 7.53896 26.7353C7.30474 26.7353 5.94997 26.1136 4.52827 25.3788C2.48771 24.3049 1.86885 23.8904 1.63468 23.4382C0.915469 22.1194 1.4507 20.9701 3.20692 20.0658C3.85923 19.7078 5.34784 18.9165 6.50191 18.3136C7.65603 17.6919 8.92722 17.0136 9.34534 16.7875C9.76347 16.5803 11.7372 15.5063 13.761 14.4136C15.7681 13.3209 17.4239 12.4165 17.4574 12.4165C17.4741 12.4165 18.762 11.7195 20.3175 10.8905C23.1944 9.32671 25.4691 8.10201 28.162 6.67017C28.9983 6.21799 30.8716 5.21947 32.3435 4.40931C37.7794 1.58325 37.3488 1.46077 39.222 1.46077H39.8415C39.9719 1.46078 40.1021 1.4729 40.2306 1.49704C40.3525 1.51993 40.4727 1.55353 40.5899 1.59756L40.7901 1.67272L42.9644 2.69483C44.1185 3.29772 46.2929 4.46588 47.7982 5.27594C49.3036 6.10495 50.5413 6.76435 50.5747 6.76435C50.5915 6.76435 52.3979 7.74411 54.5722 8.93102C56.7634 10.118 58.5698 11.0977 58.5865 11.0977C58.6199 11.0977 60.142 11.9078 61.9651 12.9064C65.143 14.6397 67.0832 15.676 69.6423 17.0325C74.1249 19.4064 76.4165 20.7063 76.7172 21.0831C76.9851 21.4034 77.0856 21.7614 77.0856 22.4019C77.0856 23.5135 76.7507 23.9281 75.1786 24.7571C73.7903 25.4918 73.9241 25.6802 75.7473 25.5671C77.1191 25.4918 77.6542 25.115 78.2228 23.9092C78.9083 22.3832 78.5741 20.7629 77.3029 19.5947C76.9516 19.2745 76.6338 19.0107 76.5668 19.0107C76.517 19.0107 75.0615 18.2382 73.3388 17.315C71.616 16.3731 66.5313 13.66 62.0655 11.2673C51.6787 5.70935 51.2103 5.46441 46.3096 2.80788C44.0516 1.58325 41.8104 0.452811 41.3086 0.283247C40.1211 -0.112402 38.2645 -0.0935562 37.1104 0.339768ZM7.72294 41.0917C8.25813 41.4121 8.49228 41.8265 8.50902 42.4483C8.50902 43.6352 7.27133 44.2946 6.3681 43.5787C6.08378 43.3526 6.00015 43.1077 6.00015 42.4483C6.00015 41.7135 6.06705 41.5627 6.55207 41.2424C7.18767 40.8091 7.23783 40.7903 7.72294 41.0917ZM8.7934 47.2714C9.0108 48.2511 9.14462 49.1743 9.09445 49.2873C9.0108 49.57 5.41474 49.6453 5.26421 49.3815C5.19731 49.2685 5.39802 48.1946 5.91652 45.8019C6.00015 45.3874 6.08378 45.3685 7.22116 45.425L8.42544 45.4816L8.7934 47.2714Z" fill="white"/>
<path d="M34.9066 36.8292C34.8397 36.9045 34.7896 39.0146 34.7896 41.5204C34.7896 45.8537 34.8063 46.0987 35.1743 46.89C35.7262 48.1334 36.4287 48.5856 37.8336 48.5856C39.2386 48.5856 39.9746 48.1334 40.5266 46.89C40.8778 46.0798 40.8945 45.8349 40.8945 41.4262V36.8103L40.192 36.7537L39.4728 36.6973V40.7668C39.4728 45.1189 39.3223 46.3436 38.7536 46.7958C38.3354 47.116 37.5827 47.1538 37.1312 46.89C36.4454 46.4755 36.3785 46.0045 36.2949 41.332L36.2112 36.8103L35.6259 36.7537C35.2913 36.7161 34.9735 36.7537 34.9066 36.8292Z" fill="white"/>
<path d="M46.4143 36.9421C46.3642 37.0739 45.9125 39.0522 45.4108 41.3319C44.8922 43.6117 44.3236 46.0986 44.1396 46.871C43.9723 47.6435 43.8218 48.3406 43.8218 48.4348C43.8218 48.5102 44.1563 48.5855 44.5744 48.5855C45.3104 48.5855 45.3104 48.5667 45.5111 47.7754C45.9125 46.042 45.8456 46.1174 47.2841 46.1739L48.5887 46.2305L48.8563 47.3609L49.1239 48.4913L49.8097 48.5478C50.4453 48.6044 50.5122 48.5667 50.5122 48.1711C50.5122 47.9261 50.2947 46.758 50.0271 45.571C49.7595 44.3841 49.2076 41.9536 48.8229 40.2015C48.4214 38.4305 48.02 36.9421 47.9197 36.8667C47.6353 36.6218 46.498 36.6972 46.4143 36.9421ZM47.8026 42.0855C48.02 43.2725 48.1371 44.3464 48.0869 44.4406C47.9364 44.7232 46.3809 44.6667 46.2805 44.3841C46.2471 44.2711 46.2638 43.9508 46.3474 43.687C46.4143 43.4232 46.5983 42.5377 46.7489 41.7088C47.2339 39.2595 47.3008 39.2972 47.8026 42.0855Z" fill="white"/>
<path d="M54.1498 37.0928C54.0494 37.2812 54.0244 38.1526 54.0244 39.071C54.0244 39.9896 53.9909 42.5377 54.0076 44.7044V46.4952C54.0076 47.6288 54.8238 48.5478 55.8307 48.5478C57.8713 48.4536 58.44 48.2087 59.1592 47.1348C59.4929 46.7195 59.6777 46.1794 59.6777 45.6193V45.571V44.7232V42.971C59.7111 40.5407 59.6777 39.316 59.5272 38.9015C58.9919 37.3943 57.7709 36.7161 55.5129 36.7161C54.409 36.7161 54.2836 36.7914 54.1498 37.0928ZM57.403 38.6189C58.1723 39.0711 58.2894 39.6552 58.2894 42.6696C58.2894 45.2884 58.256 45.5899 57.9382 46.0797C57.4866 46.758 56.3325 47.2102 55.7638 46.9088L55.3624 46.7014V42.6696C55.3624 39.0145 55.3959 38.6001 55.6634 38.4117C55.9646 38.2044 56.9012 38.3174 57.403 38.6189Z" fill="white"/>
<path d="M63.4744 37.1305C63.4242 37.3755 63.4075 40.0132 63.4243 43.0276L63.4744 48.4914H66.067H68.6594V47.832V47.1725L67.0036 47.116C66.0836 47.0972 65.2306 46.9653 65.1136 46.8522C64.9463 46.7015 64.8961 46.2117 64.9296 45.0247L64.9797 43.4045L66.6189 43.3479L68.2413 43.2914V42.5566V41.8219L66.6189 41.7653L64.9797 41.7088L64.9296 40.2393C64.8961 39.2972 64.9463 38.6567 65.0801 38.4871C65.2139 38.2987 65.7157 38.2233 66.9367 38.2233H68.5925L68.5423 37.5074L68.4922 36.8103L66.0335 36.7537C63.5915 36.6972 63.5581 36.7161 63.4744 37.1305Z" fill="white"/>
<path d="M84.8146 37.069C84.7648 37.314 84.7476 39.9517 84.7648 42.9661L84.8146 48.4299H87.4068H89.9998V47.7705V47.111L88.3439 47.0545C87.424 47.0356 86.5711 46.9037 86.4534 46.7907C86.2868 46.64 86.2361 46.1501 86.2696 44.9632L86.3202 43.3429L87.9591 43.2864L89.5816 43.2299V42.4951V41.7603L87.9591 41.7038L86.3202 41.6473L86.2696 40.1777C86.2361 39.2357 86.2868 38.5951 86.4199 38.4255C86.5539 38.2372 87.0555 38.1618 88.2769 38.1618H89.9329L89.8822 37.4459L89.8324 36.7487L87.3733 36.6922C84.9314 36.6357 84.8979 36.6546 84.8146 37.069Z" fill="white"/>
<path d="M72.5399 36.8479C72.473 36.9045 72.4229 39.5798 72.4229 42.7827V48.5856H73.0919C73.6773 48.5856 73.7609 48.529 73.7776 48.1523C73.7776 47.9262 73.7776 46.3436 73.7776 44.6291C73.7609 42.9146 73.8278 41.3885 73.9114 41.2378C74.0954 40.9551 74.1122 40.9929 74.7979 43.1218C74.9819 43.687 75.1826 44.3276 75.2495 44.5349C75.3331 44.7421 75.4669 45.1377 75.584 45.4204C75.7346 45.8914 75.8516 45.9479 76.5036 45.9479H77.2568L77.591 44.8552C78.5444 41.9161 78.8621 41.0493 78.9798 41.0493C79.046 41.0493 79.1301 42.7262 79.1465 44.761L79.1971 48.4914H79.8662H80.5353V42.6508V36.8103H79.782H79.0296L77.8589 40.0508C77.1392 42.0667 76.6041 43.2914 76.4709 43.2537C76.3533 43.2349 75.768 41.8219 75.1491 40.1074C74.547 38.3929 73.9616 36.9422 73.8613 36.8668C73.6271 36.6784 72.6904 36.6784 72.5399 36.8479Z" fill="white"/>
</svg>
