<svg width="686" height="215" viewBox="0 0 686 215" fill="none" xmlns="http://www.w3.org/2000/svg">
<path d="M0 181.513C27.9129 172.699 54.4306 150.755 78.4647 134.634C80.3876 133.345 117.033 108.9 117.197 110.623C117.535 114.168 113.772 121.944 112.909 124.773C108.357 139.694 103.896 154.633 99.1886 169.508C97.2868 175.517 83.887 203.235 88.0406 209.812C97.4593 224.725 171.321 189.239 178.511 186.23C261.107 151.663 336.123 103.855 411.618 56.3126C438.237 39.5495 465.235 23.4376 491.941 6.86124C492.591 6.45803 497.881 1.89469 499.087 2.00186C513.592 3.29117 527.546 8.20936 541.678 11.7206C572.606 19.4049 658.852 41.327 684.315 47.7372" stroke="white" stroke-opacity="0.5" stroke-width="3" stroke-linecap="round"/>
</svg>
